/* XPM */
static char *result[] = {
/* columns rows colors chars-per-pixel */
"25 38 8 1 ",
"  c #422632",
". c #733D3B",
"X c #BF4830",
"o c #F77622",
"O c #D77643",
"+ c #FDAE35",
"@ c #FEE861",
"# c None",
/* pixels */
"############o############",
"###########ooo###########",
"###########o#o###########",
"###########o#o###########",
"#++++++++++ooo++++++++++#",
"#ooooooooooooooooooooooo#",
"#ooooooooooooooooooooooo#",
"#oo                   oo#",
"#oo ..   ...  .   ..  oo#",
"#oo...................oo#",
"#oo...................oo#",
"#oo  ...  .      ...  oo#",
"#oo...................oo#",
"#oo..    ..     ..  ..oo#",
"#oo        o@@@       oo#",
"#oo  XXX  o@+oo@ XXX  oo#",
"###ooXXXooo@++o@oXXXoo###",
"#+++++++++o@++o@++++++++#",
"#++XXXXXXXo@++o@XXXXXX++#",
"#++XXXXXXXXo@@@XXXXXXX++#",
"#++XXXXXXXXXXXXXXXXXXX++#",
"#++XXXXXXXXXXXXXXXXXXX++#",
"#++XXXXXXXXXXXXXXXXXXX++#",
"#+@XXXXXXXXXXXXXXXXXXX+@#",
"#+@XXXXXXXXXXXXXXXXXXX+@#",
"#+@@@++++++++++++++++@@@#",
"#ooooooooooooooooooooooo#",
"##OO                 OO##",
"#o++ ... ....... ... ++o#",
"#o++ ... ...@... ... ++o#",
"#o++.... ...o....... ++o#",
"##++.... ...o... ....++##",
"##++ ....... ... ....++##",
"##++ ... ... ... ... ++##",
"##++ ... ..  ... ... ++##",
"#@+++++++++++++++++++++@#",
"#@@@@@++@@++++++@+@@+@@@#",
"#ooooooooooooooooooooooo#"
};
