/* XPM */
static char *result[] = {
/* columns rows colors chars-per-pixel */
"25 27 9 1 ",
"  c #422632",
". c #733D3B",
"X c #F77622",
"o c #D77643",
"O c #FDAE35",
"+ c #C28569",
"@ c #FEE861",
"# c #EBD4AB",
"$ c None",
/* pixels */
"$$$$$$$$$$$$$$$$$$$$$$$$$",
"$$$$$OOO$$$$$$$$$OOO$$$$$",
"$$$..OOO.........OOO..$$$",
"$$$..OOO.........OOO..$$$",
"$$$  O@O      .  O@O  $$$",
"$OO..@@@.........@@@..OO$",
"$OO..@@@.........@@@..OO$",
"$OO..OOO.........OOO..OO$",
"$OO  OOO  .      OOO  OO$",
"$OO..OOO.........OOO..OO$",
"$OO..OOX.........XOX..OO$",
"$OO  XXX.    ... XXX  O@$",
"$OO  XXX         XXX  O@$",
"$OOOOOOOOOOOOOOOOOOOO@@@$",
"$XXXXXXXXXXXXXXXXXXXXXXX$",
"$$oo       OOO       oo$$",
"$XOO ... ..OOO.. ... OOX$",
"$XOO ... ..+@+.. ... OOX$",
"$XOO.... .. X ...... OOX$",
"$$OO.... .# # #. ....OO$$",
"$$OO .....#####. ....OO$$",
"$$OO ... .+++++. ... OO$$",
"$$OO ... .++ ++. ... OO$$",
"$OOOOOOOOO+++++OOOOOOOO@$",
"$OOOOOOOOOOOOOOO@O@@O@@@$",
"$XXXXXXXXXXXXXXXXXXXXXXX$",
"$$$$$$$$$$$$$$$$$$$$$$$$$"
};
