/* XPM */
static char *result[] = {
/* columns rows colors chars-per-pixel */
"18 30 3 1 ",
"  c #FDAE35",
". c #FEE861",
"X c None",
/* pixels */
"XXXXXXXXXXXXXXXXXX",
"XXXXXXXX  XXXXXXXX",
"XXXXXXX    XXXXXXX",
"XXXXXXX XX XXXXXXX",
"XXXXXX XXXX XXXXXX",
"XX   X XXXX X   XX",
"X  X   XXXX   X  X",
"  XXXX  XX  XXXX  ",
"  XXXX      XXXX  ",
"  XXX XX  XX XXX  ",
"X  XX X XX X XX  X",
"XXX  X  XX  X  XXX",
"XXXXX        XXXXX",
"XXXXX      XXXXXXX",
"XXXXXXXX  XXXXXXXX",
"XXXXXXX  ..XXXXXXX",
"XXXXXXXX  XXXXXXXX",
"XXXXXXX  ..XXXXXXX",
"XXXXXXXX  XXXXXXXX",
"XXXXXXXX .XXXXXXXX",
"XXXXXXXX .XXXXXXXX",
"XXXXXXXX .XXXXXXXX",
"XXXXXXXX .XXXXXXXX",
"XXXXXXXX . X  XXXX",
"XXXXXXXX .    XXXX",
"XXXXXXXX .   XXXXX",
"XXXXXXXX .    XXXX",
"XXXXXXXX . X  XXXX",
"XXXXXXXX .XXXXXXXX",
"XXXXXXXXXXXXXXXXXX"
};
