/* XPM */
static char * outdoors_xpm[] = {
"56 25 10 1",
" 	c None",
".	c #4F1D4C",
"+	c #FF8933",
"@	c #AD2F45",
"#	c #E64539",
"$	c #291D2B",
"%	c #404973",
"&	c #A3A7C2",
"*	c #2C354D",
"=	c #686F99",
"                                                        ",
"                            ................            ",
"                          ..++++++++++++++++.           ",
"                        ..++@+#############@+.          ",
"                      ..++$$@+#############@$+..        ",
"         .............++$$%$@+#############@$$++....    ",
"       ..+++++++++++++$$%%%$@+#############@$%$$++.+.   ",
"      .++............@$%%%$$@+#############@$%%%$@.+.   ",
"     .+#.@@@@@@@@@@@@@$%$$$$@+#############@$$%%$@.+.   ",
"     .+.@++++++++++++@$$$$$$@+#############@$$$$$@.+.   ",
"     .+.+############@$$$$$$@+#############@$$$$$@.+.   ",
"     .+.+############@$$$$$$@+++++#########@$$$$$@.+.   ",
"     .+.+############@$$$$##................#$$$$@.+.   ",
"     .+.++++#########@$$##..++++++++++++++++.#$$$@.+.   ",
"     .+.+............@##..++$$%$$%%%$$$$$$$$+.##$@.+.   ",
"     .+..############@..+$##$%$$%%%$$$$$$$$$$+..#@.+.   ",
"     .+##.............++.@$$@@@@@@@.#########.++.....   ",
"     .+..+++++++++++++##.@++++++$$+.######$$#.###.&@.   ",
"     ..&.#####++++++####.@+########.##++++++#.####...   ",
"     .@.####++$$$$$$++##.@+++######.++$$$$$$+.#@@###$   ",
"      $@$@@@$$******$$@@...........@$$******$$@@@@@@$   ",
"      $@$@@$**&%&%&%**$@@@@@@@@@@@@$**&%&%&%**$@@@@$    ",
"       $$$$$%%%=%=%=%%$$$$$$$$$$$$$$%%%=%=%=%%$$$$$*    ",
"       *****$$%%%%%%$$**************$$%%%%%%$$******    ",
"        ******$$$$$$******************$$$$$$*******     "};
