/* XPM */
static char *_1dce31730f64e139967898eb3557b93aJR3E6rDyejFcMdb[] = {
/* columns rows colors chars-per-pixel */
"26 33 8 1 ",
"  c None",
". c #4A682C",
"X c #252B43",
"o c #3A4467",
"O c #BF4830",
"+ c #F77622",
"@ c #0099DC",
"# c #EBD4AB",
/* pixels */
"                          ",
"                          ",
"    ######        ######  ",
"    #....#        #....#  ",
"    OOOOOOOO    OOOOOOOO  ",
"    OOOOOOOO    OOOOOOOO  ",
"    @@@@@@@@@  @@@@@@@@@  ",
"    @@++++++++++++++++@@  ",
"    ++++++++++++++++++++  ",
"  OOO++++++++++++++++++OOO",
" OOOO++++++++++++++++++OOO",
" OOOO++++++++++++++++++OOO",
" OOOO++++XXXXXXXXXX++++OOO",
" OOOO++++XXXXXXXXXX++++OOO",
" OOOO+XXXXXOOOOOOXXXXX+OOO",
" O++++XXXXXO####OXXXXX++++",
" +++++XXOOOOOOOOOOOOXX++++",
" +++++XXOOOOOOOOOOOOXX++++",
"  ++++OOOOXXOOOOXXOOOO++++",
"   +++OOOOXXOOOOXXOOOO+++ ",
"      OOOOXXOOOOXXOOOO    ",
"    OOXXOOOOOOOOOOOOXXOO  ",
"    OOXXOOOOOOOOOOOOXXOO  ",
"    OOXXXXXXXXXXXXXXXXOO  ",
"    OOXXXXXXXXXXXXXXXXOO  ",
"    OOXXXXXXXXXXXXXXXXOO  ",
"      XXooooooooooooXX    ",
"      oooooooooooooooo    ",
"      oooooooooooooooo    ",
"      oooooooooooooooo    ",
"      oooooooooooooooo    ",
"      oooooooooooooooo    ",
"        oooooooooooo      "
};
