/* XPM */
static char *_b4c1f66a57b4479820d84894abcec6172YLpVpQoelnwg39[] = {
/* columns rows colors chars-per-pixel */
"26 33 8 1 ",
"  c None",
". c #4A682C",
"X c #252B43",
"o c #3A4467",
"O c #BF4830",
"+ c #F77622",
"@ c #0099DC",
"# c #EBD4AB",
/* pixels */
"       oooooooooooo       ",
"       oooooooooooo       ",
"     oooooooooooooooo     ",
"     oooooooooooooooo     ",
"     oooooooooooooooo     ",
"     oooooooooooooooo     ",
"     oooooooooooooooo     ",
"     XXooooooooooooXX     ",
"   OOXXXXXXXXXXXXXXXXOO   ",
"   OOXXXXXXXXXXXXXXXXOO   ",
"   OOXXXXXXXXXXXXXXXXOO   ",
"   OOXXOOOOOOOOOOOOXXOO   ",
"   OOXXOOOOOOOOOOOOXXOO   ",
"     OOOOXXOOOOXXOOOO     ",
"  +++OOOOXXOOOOXXOOOO+++  ",
" ++++OOOOXXOOOOXXOOOO++++ ",
"+++++XXOOOOOOOOOOOOXX+++++",
"+++++XXOOOOOOOOOOOOXX+++++",
"O++++XXXXXO####OXXXXX++++O",
"OOOO+XXXXXOOOOOOXXXXX+OOOO",
"OOOO++++XXXXXXXXXX++++OOOO",
"OOOO++++XXXXXXXXXX++++OOOO",
"OOOO++++++++++++++++++OOOO",
"OOOO++++++++++++++++++OOOO",
" OOO++++++++++++++++++OOO ",
"   ++++++++++++++++++++   ",
"   @@++++++++++++++++@@   ",
"   @@@@@@@@@  @@@@@@@@@   ",
"   OOOOOOOO    OOOOOOOO   ",
"   OOOOOOOO    OOOOOOOO   ",
"   #....#        #....#   ",
"   ######        ######   ",
"                          "
};
