/* XPM */
static char *_f9e73b18f3c4732f86e28c0653db17bIxzwX9ATYAGmvFRY[] = {
/* columns rows colors chars-per-pixel */
"26 33 8 1 ",
"  c None",
". c #4A682C",
"X c #252B43",
"o c #3A4467",
"O c #BF4830",
"+ c #F77622",
"@ c #0099DC",
"# c #EBD4AB",
/* pixels */
"                          ",
"                          ",
"                          ",
"       OOOOOO++           ",
"      OOOOOO++++          ",
"      OOOOOO+++++         ",
"#OO@@+OOOOOO+++++ OOOOO   ",
".OO@@++++++++++++ OOOOO   ",
".OO@+++++++XXXXOOOXXXXXXoo",
".OO@+++++++XXXXOOOXXXXXXoo",
".OO@+++++++XXOOOOOOOXXXooo",
"#OO@+++++XXXXOOOOOOOXXXooo",
" OO@+++++XXXXOOXXXOOXXXooo",
" OO@+++++XXOOOOXXXOOXXXooo",
"   @+++++XXO#OOOOOOOXXXooo",
"    +++++XXO#OOOOOOOXXXooo",
"    +++++XXO#OOOOOOOXXXooo",
"   @+++++XXO#OOOOOOOXXXooo",
" OO@+++++XXOOOOXXXOOXXXooo",
" OO@+++++XXXXOOXXXOOXXXooo",
"#OO@+++++XXXXOOOOOOOXXXooo",
".OO@+++++++XXOOOOOOOXXXooo",
".OO@+++++++XXXXOOOXXXXXXoo",
".OO@+++++++XXXXOOOXXXXXXoo",
".OO@@++++++++++++ OOOOO   ",
"#OO@@+OOOOOO+++++ OOOOO   ",
"      OOOOOO+++++         ",
"      OOOOOO++++          ",
"                          ",
"                          ",
"                          ",
"                          ",
"                          "
};
