/* XPM */
static char *_b0f108e1aee449b8b550ad25b4f5e7d125zwcpb2lQpFcE9[] = {
/* columns rows colors chars-per-pixel */
"26 33 8 1 ",
"  c None",
". c #4A682C",
"X c #252B43",
"o c #3A4467",
"O c #BF4830",
"+ c #F77622",
"@ c #0099DC",
"# c #EBD4AB",
/* pixels */
"                          ",
"                          ",
"                          ",
"                          ",
"                          ",
"          ++++OOOOOO      ",
"         +++++OOOOOO      ",
"   OOOOO +++++OOOOOO+@@OO#",
"   OOOOO ++++++++++++@@OO.",
"ooXXXXXXOOOXXXX+++++++@OO.",
"ooXXXXXXOOOXXXX+++++++@OO.",
"oooXXXOOOOOOOXX+++++++@OO.",
"oooXXXOOOOOOOXXXX+++++@OO#",
"oooXXXOOXXXOOXXXX+++++@OO ",
"oooXXXOOXXXOOOOXX+++++@OO ",
"oooXXXOOOOOOO#OXX+++++@   ",
"oooXXXOOOOOOO#OXX+++++    ",
"oooXXXOOOOOOO#OXX+++++    ",
"oooXXXOOOOOOO#OXX+++++@   ",
"oooXXXOOXXXOOOOXX+++++@OO ",
"oooXXXOOXXXOOXXXX+++++@OO ",
"oooXXXOOOOOOOXXXX+++++@OO#",
"oooXXXOOOOOOOXX+++++++@OO.",
"ooXXXXXXOOOXXXX+++++++@OO.",
"ooXXXXXXOOOXXXX+++++++@OO.",
"   OOOOO ++++++++++++@@OO.",
"   OOOOO +++++OOOOOO+@@OO#",
"         +++++OOOOOO      ",
"          ++++OOOOOO      ",
"           ++OOOOOO       ",
"                          ",
"                          ",
"                          "
};
