/* XPM */
static char *_d9efb979cb84711fc370d7942250187G4ZujjoIRBZJieSK[] = {
/* columns rows colors chars-per-pixel */
"206 51 9 1 ",
"  c None",
". c black",
"X c gray12",
"o c #3F3F3F",
"O c #5F5F5F",
"+ c gray50",
"@ c #9F9F9F",
"# c gray75",
"$ c #DFDFDF",
/* pixels */
"                                                                                                                                                                                                              ",
"                                                                                                                                                                                                              ",
"                                                                                                                                                                                                              ",
"                                                                                                                                                                                                              ",
"                                                                                                                                                                                                              ",
"                                                                                                                                                                                                              ",
"                                                                                                                                                                                                              ",
"                                                                                                                                                                                                              ",
"                                                                                                                                                                                                              ",
"                                                                                                                                                                                                              ",
"                                                                                                                                                                                                              ",
"                                                                                                                                                                                                              ",
"                                                                                                                                                                                                              ",
"                                                                                                                                                                                                              ",
"                                                                                                                                                                                                              ",
"....X#  ....X#  .......    +X.O    +X.O      .......  ..$  $..  ........ .......  ....X#      ........   @o..o#         @o..o#    @o..o#   ..$  $..  ........  ..$ ..$  $..  ..$  $.. .......   ..$           ",
"......# ......# .......   +....@  +....@     .......  ..X  $..  ........ .......  ......#     ........  +......+       +......@  +......+  ..X  $..  ........  ..$ ..X  $..  ..$  $.. .......   ..$           ",
"..##o.X ..##o.X ..#$$$$   X.+@#   X.+@#      ..#$$$$  ...O $..  $$#..$$$ ..#$$$$  ..##o.X     $$#..$$$ @..O##O..#     #..O##o.o @..O##O..# ...O $..  $$#..$$$  ..$ ...O $..  ..$  $.. ..#$$$$   ..$           ",
"..$ $.. ..$ $.. ..$       X.@     X.@        ..$      ....#$..    $..    ..$      ..$ $..       $..    o.O    O.o     o.O    +$ o.O    O.o ....#$..    $..     ..$ ....#$..  ..$  $.. ..$       ..$           ",
"..$ O.X ..$ O.X .....     O..XO   O..XO      .....    ..o.X#..    $..    .....    ..$ O.X       $..    ..# XX #..     ..#       ..# XX #.. ..o.X#..    $..     ..$ ..o.X#..  ..$  $.. .....     ..$           ",
"......@ ......@ .....     $o...O  $o...O     .....    ..$X.X..    $..    .....    ......@       $..    ..# Xo #..     ..#       ..# Xo #.. ..$X.X..    $..     ..$ ..$X.X..  ..$  $.. .....     ..$           ",
".....+  .....@  ..#$$      #$@..   #$@..     ..#$$    ..$#....    $..    ..#$$    .....@        $..    o.O    O.o     o.O    +$ o.O    O.o ..$#....    $..     ..$ ..$#....  ..#  #.. ..#$$     ..$           ",
"..#$    ..@..$  ..#$$$$   o.@@..  o.@@..     ..#$$$$  ..$ +...    $..    ..#$$$$  ..@..$        $..    @..O##O..@     @..O##o.o @..O##O..@ ..$ +...    $..     ..$ ..$ +...  o.X##X.o ..#$$$$                 ",
"..$     ..$O.o  .......   +....o  +....o     .......  ..$  o..    $..    .......  ..$O.o        $..     +......+       +......@  +......+  ..$  o..    $..     ..$ ..$  o..  $......$ .......   XX            ",
"..$     ..$$..@ .......    +XXO$   +XXO$     .......  ..$  $X.    $..    .......  ..$$..@       $..      @o..o@         @o..o#    @o..o@   ..$  $X.    $..     ..$ ..$  $X.   $o..o$  .......   oX            ",
"                                                                                                                                                                                                              ",
"                                                                                                                                                                                                              ",
"                                                                                                                                                                                                              ",
"                                                                                                                                                                                                              ",
"                                                                                                                                                                                                              ",
"                                                                                                                                                                                                              ",
"                                                                                                                                                                                                              ",
"                                                                                                                                                                                                              ",
"                                                                                                                                                                                                              ",
"                                                                                                                                                                                                              ",
"                                                                                                                                                                                                              ",
"                                                                                                                                                                                                              ",
"                                                                                                                                                                                                              ",
"                                                                                                                                                                                                              ",
"                                                                                                                                                                                                              ",
"                                                                                                                                                                                                              ",
"                                                                                                                                                                                                              ",
"                                                                                                                                                                                                              ",
"                                                                                                                                                                                                              ",
"                                                                                                                                                                                                              ",
"                                                                                                                                                                                                              ",
"                                                                                                                                                                                                              ",
"                                                                                                                                                                                                              ",
"                                                                                                                                                                                                              ",
"                                                                                                                                                                                                              ",
"                                                                                                                                                                                                              "
};
