/* XPM */
static char *c80759d341304667b99fd3dfed4af767s65SqJ9HNNMNs0GW[] = {
/* columns rows colors chars-per-pixel */
"32 32 5 1 ",
"  c #4F6781",
". c #0484D1",
"X c #2CE8F4",
"o c #AFBFD2",
"O c white",
/* pixels */
"oo............................oo",
"oo............................oo",
"...OO           X          OO...",
"..O......ooooooo oooooo......O..",
"..O.XOOo.oooooo   ooooo.oOOX.O..",
"..X.OXXo.ooooo  o  oooo.oXXO.X..",
"..X.OXXO.oooooOOoOOoooo.OXXO.X..",
"..X.ooOX.ooooooOOOooooo.XOoo.X..",
"..X......oooooooOoooooo......X..",
"..XooooooXX..OOXX..OOXXooooooX..",
"..XooooooXX..OOXX..OOXXooooooX..",
"..XooooooOOoooooooooo..ooooooX..",
"..XooooooOOoooooXoooo..ooooooX..",
"..Xo Oooo..ooooXXXoooOOoooO oX..",
"..X  OOoo..oooXXOXXooOOooOO  X..",
"..  ooOOXXXooXXOOOXXoXXXOOoo  ..",
"..  ooOOXXXoo  OOO  oXXXOOoo  ..",
"..X  OOooOOooo  O  oo..ooOO  X..",
"..Xo OoooOOoooo   ooo..oooO oX..",
"..Xoooooo..ooooo ooooOOooooooX..",
"..Xoooooo..ooooooooooOOooooooX..",
"..XooooooXXOO..XXOO..XXooooooX..",
"..XooooooXXOO..XXOO..XXooooooX..",
"..X......oooooooOoooooo......X..",
"..X.ooOX.ooooooOOOooooo.XOoo.X..",
"..X.OXOO.oooooOOoOOoooo.OXXO.X..",
"..X.OXXo.ooooo  o  oooo.oXXO.X..",
"..O.XOOo.oooooo   ooooo.oOOX.O..",
"..O......ooooooo oooooo......O..",
"...OO           X          OO...",
"oo............................oo",
"oo............................oo"
};
