/* XPM */
static char *_644343133276[] = {
/* columns rows colors chars-per-pixel */
"32 32 5 1 ",
"  c black",
". c #FB922B",
"X c #FFE762",
"o c white",
"O c None",
/* pixels */
"OOOOOOOOOOOOOOOOOOOOOOOOOOOOOOOO",
"OOOOOOOOOOOOOOOOOOOOOOOOOOOOOOOO",
"OOOOOOOOOOOOOOOOOOOOOOOOOOOOOOOO",
"OOOOOOOOOOOOOOOOOOOOOOOOOOOOOOOO",
"OOOOOOOOOOOOOOOOOOOOOOOOOOOOOOOO",
"OOOOOOOOOOOOO      OOOOOOOOOOOOO",
"OOOOOOOOOOOO  ....  OOOOOOOOOOOO",
"OOOOOOOOOOO  ..oX..  OOOOOOOOOOO",
"OOOOOOOOOO  ..ooXX..  OOOOOOOOOO",
"OOOOOOOOO  ..oo..XX..  OOOOOOOOO",
"OOOOOOOO  ..Xo....XX..  OOOOOOOO",
"OOOOOOO  ..XX..oo..XX..  OOOOOOO",
"OOOOOOO ..XX..XooX..XX.. OOOOOOO",
"OOOOOOO .XX..XX..XX..XX. OOOOOOO",
"OOOOOOO .XX..X....X..XX. OOOOOOO",
"OOOOOOO .XX..X....X..XX. OOOOOOO",
"OOOOOOO .XX..X....X..XX. OOOOOOO",
"OOOOOOO .XX..X....X..XX. OOOOOOO",
"OOOOOOO .XX..XX..XX..XX. OOOOOOO",
"OOOOOOO ..XX..XoXX..XX.. OOOOOOO",
"OOOOOOO  ..XX..oo..XX..  OOOOOOO",
"OOOOOOOO  ..XX....oX..  OOOOOOOO",
"OOOOOOOOO  ..XX..oo..  OOOOOOOOO",
"OOOOOOOOOO  ..XXoo..  OOOOOOOOOO",
"OOOOOOOOOOO  ..Xo..  OOOOOOOOOOO",
"OOOOOOOOOOOO  ....  OOOOOOOOOOOO",
"OOOOOOOOOOOOO      OOOOOOOOOOOOO",
"OOOOOOOOOOOOOOOOOOOOOOOOOOOOOOOO",
"OOOOOOOOOOOOOOOOOOOOOOOOOOOOOOOO",
"OOOOOOOOOOOOOOOOOOOOOOOOOOOOOOOO",
"OOOOOOOOOOOOOOOOOOOOOOOOOOOOOOOO",
"OOOOOOOOOOOOOOOOOOOOOOOOOOOOOOOO"
};
