/* XPM */
static char *_644343331025[] = {
/* columns rows colors chars-per-pixel */
"32 32 3 1 ",
"  c black",
". c white",
"X c None",
/* pixels */
"XXXXXXXXXXXXXXXXXXXXXXXXXXXXXXXX",
"XXXXXXXXXXXXXXXXXXXXXXXXXXXXXXXX",
"XXXXXXXXXXXXXXXXXXXXXXXXXXXXXXXX",
"XXXXXXXXXXXXXXXXXXXXXXXXXXXXXXXX",
"XXXXXXXXXXXXXXXXXXXXXXXXXXXXXXXX",
"XXXXXXXXXXXXX  XXX  XX  XXXXXXXX",
"XXXXXXXXXXX    X    X   XXXXXXXX",
"XXXXXXXXXXX            XX  XXXXX",
"XXXXXXXXXX                 XXXXX",
"XXXXXXXXX                 XXXXXX",
"XXXXXXXX     .......      XXXXXX",
"XXXXXXXX    .........     XXXXXX",
"XXXXXXXX   ...........   XXXXXXX",
"XXXXXXXX   ...........   XXXXXXX",
"XXXXXXXX   ...........   XXXXXXX",
"XXXXXXXX   .. ..... ..   XXXXXXX",
"XXXXXXXX   ..  ...  ..   XXXXXXX",
"XXXXXXX    ..  ...  ..    XXXXXX",
"XXXXXXX   ...  ...  ...   XXXXXX",
"XXXXXXX   .............   XXXXXX",
"XXXXXXX      . . . .      XXXXXX",
"XXXXXXXX     . . . .     XXXXXXX",
"XXXXXXXXX  .   . .   .  XXXXXXXX",
"XXXXXXXXX .  .     .  . XXXXXXXX",
"XXXXXXXXX .   .   .   . XXXXXXXX",
"XXXXXXXXX      ...      XXXXXXXX",
"XXXXXXXXXXXX  . . .  XXXXXXXXXXX",
"XXXXXXXXXXXXX       XXXXXXXXXXXX",
"XXXXXXXXXXXXX . X . XXXXXXXXXXXX",
"XXXXXXXXXXXXX . X . XXXXXXXXXXXX",
"XXXXXXXXXXXXX   X   XXXXXXXXXXXX",
"XXXXXXXXXXXXXXXXXXXXXXXXXXXXXXXX"
};
