/* XPM */
static char *_644343259428[] = {
/* columns rows colors chars-per-pixel */
"32 32 10 1 ",
"  c black",
". c #3F2832",
"X c #743F39",
"o c #E53B44",
"O c #B86F50",
"+ c #E4A672",
"@ c #2CE8F4",
"# c #FF80B7",
"$ c white",
"% c None",
/* pixels */
"%%%%%%%%%%% %   %   %%%  %%%%%%%",
"%%%%%%%%%%   . % .  %   %%%%%%%%",
"%%%%%%%%%   ..   .   .. %%%%%%%%",
"%%%%%%%%%  ..   .   ..  %.  %%%%",
"%%%%%%%%  ...........   .. %%%%%",
"%%%%%%%  ..........     . %%%%%%",
"%%%%%%   .......      o  %%%%%%%",
"%%%%%% . ..  .   $@#$@o%%%%%%%%%",
"%%%%%%          @      %%%%%%%%%",
"%%%%%%  #$@  #$    OOO %%%%%%%%%",
"%%%%%%  .       OOOOOO %%%%%%%%%",
"%%%%%%  .     OOO+O ++ %%%%%%%%%",
"%%%%%%%   +... +++  ++ %%%%%%%%%",
"%%%%%%%  +++ ..+++  ++   %%%%%%%",
"%%%%%%%% +O++  +++  ++++ %%%%%%%",
"%%%%%%%%  OO++++++++++O  %%%%%%%",
"%%%%%%%%%  Oo ++++++OOO %%%%%%%%",
"%%%%%%%%%%  o   +++OO   %%%%%%%%",
"%%%%%%%%%%%   #       %%%%%%%%%%",
"%%%%%%%%%%%%% ##  # %%%%%%%%%%%%",
"%%%%%%%%%%%%%  ##   %%%%%%%%%%%%",
"%%%%%%%%%%%%%  #    %%%%%%%%%%%%",
"%%%%%%%%%%%%     ++  %%%%%%%%%%%",
"%%%%%%%%%%  + ##  ++  %%%%%%%%%%",
"%%%%%%%%%% +  ###  ++ %%%%%%%%%%",
"%%%%%%%%%%   @#@#@    %%%%%%%%%%",
"%%%%%%%%%%%%         %%%%%%%%%%%",
"%%%%%%%%%%%%% XXX X % %%%%%%%%%%",
"%%%%%%%%%%%% XXX XXX  %%%%%%%%%%",
"%%%%%%%%%%%% XX % XX %%%%%%%%%%%",
"%%%%%%%%%%%%%    %  %%%%%%%%%%%%",
"%%%%%%%%%%%%%%%%%%%%%%%%%%%%%%%%"
};
