/* XPM */
static char *_644343362775[] = {
/* columns rows colors chars-per-pixel */
"32 32 3 1 ",
"  c black",
". c #4F6781",
"X c #AFBFD2",
/* pixels */
"                   X          X ",
"                  ..         .. ",
"  X                             ",
" ..         X          X        ",
"           ..         ..        ",
"      X                         ",
"     ..        X                ",
"              ..                ",
"                   X      X     ",
"   X      X       ..     ..     ",
"  ..     ..                     ",
"                                ",
"                       X        ",
"      X               ..     X  ",
"     ..      X              ..  ",
"  X         ..                  ",
" ..                    X        ",
"                      ..        ",
"          X                     ",
"         ..               X     ",
"      X           X      ..     ",
"     ..          ..             ",
"                                ",
"            X                   ",
"           ..          X        ",
"                      ..        ",
"  X     X       X            X  ",
" ..    ..      ..           ..  ",
"                                ",
"    X               X           ",
"   ..              ..           ",
"                                "
};
