/* XPM */
static char *_644343389253[] = {
/* columns rows colors chars-per-pixel */
"32 32 7 1 ",
"  c black",
". c #193D3F",
"X c #4F6781",
"o c #0484D1",
"O c #2CE8F4",
"+ c #AFBFD2",
"@ c white",
/* pixels */
"++++@++++++++++++++++++++++@++++",
"+++XX++++++++       ++++++XX++++",
"+++++++++                +++++++",
"+++                          +++",
"+++  ..                   .  +++",
"+++++ .....           .... +++++",
"++@+++ XXXXXX       XXXXX ++++++",
"+XX+++ XXXXXXXXXXXXXXXXXX ++XX++",
"+++++ .++..++..++..++..++. +++++",
"++++ ..++..++..++..++..++.. ++++",
"+++ XXXXXXXXXXXXXXXXXXXXXXXX +++",
"++ XXXXXXXXXXXXXXXXXXXXXXXXXX ++",
"++ ++++++++++++++++++++++++++ ++",
"+ .OOOO..OOOO..OOOO..OOOO..OOO +",
"+ ..OO....OO....OO....OO....OO +",
"+ ++....++....++....++....++.. +",
"+ +++..++++..++++..++++..++++. +",
"+ @@@@@@@@@@@@@@@@@@@@@@@@@@@@ +",
"+ XXXXXXXXXXXXXXXXXXXXXXXXXXXX +",
"+ OOOOoooOOOoooOOOoooOOOoooOOO +",
"+ XXXXXXXXXXXXXXXXXXXXXXXXXXXX +",
"+ XXXXXXXXXXXXXXXXXXXXXXXXXXXX +",
"+ ++..++..++..++..++..++..++.. +",
"+ ++..++..++..++..++..++..++.. +",
"+ XXXXXXXXXXXXXXXXXXXXXXXXXXXX +",
"++ XXXXXXXXXXXXXXXXXXXXXXXXXX ++",
"+++ ........................ +++",
"++++ ...................... ++++",
"+++++ .................... +++@+",
"++@+++ .................. +++XX+",
"+XX++++                  +++++++",
"+++++++++++++++++++++++@++++++++"
};
