/* XPM */
static char *_644343405262[] = {
/* columns rows colors chars-per-pixel */
"32 32 8 1 ",
"  c black",
". c #63C64D",
"X c #FFE762",
"o c #4F6781",
"O c #0484D1",
"+ c #2CE8F4",
"@ c white",
"# c None",
/* pixels */
"################################",
"###############   ##############",
"############### @ ##############",
"#############       ############",
"############  +++++  ###########",
"###########  OOOOOOO  ##########",
"##########  oOOOOOOOo  #########",
"#########  ooOOOOOOOoo  ########",
"########  ooOOOOOOOOOoo  #######",
"######## ooO+++++++++Ooo #######",
"######## oO+         +Oo #######",
"######## oO           Oo #######",
"######## OO           OO #######",
"######## O   X     X   O #######",
"######## O   X     X   O #######",
"#######  O   X     X   O  ######",
"####### oO   X     X   Oo ######",
"####### oO             Oo ######",
"#######  Oooooo   oooooO  ######",
"########       ooo       #######",
"########### o OOOOO o ##########",
"##########    O+++O    #########",
"#########  .         .  ########",
"######### .     @     . ########",
"######### .   O   O   . ########",
"#########    oOOOOOo    ########",
"############ oOOOOOo ###########",
"###########  oO+++Oo  ##########",
"########### ooooooooo ##########",
"###########           ##########",
"#############   #   ############",
"################################"
};
