/* XPM */
static char *_644343430416[] = {
/* columns rows colors chars-per-pixel */
"32 32 9 1 ",
"  c black",
". c #63C64D",
"X c #FFE762",
"o c #4F6781",
"O c #0484D1",
"+ c #2CE8F4",
"@ c #AFBFD2",
"# c white",
"$ c None",
/* pixels */
"$$$$$$   $$$$$$$$$$$$$$$$$$$$$$$",
"$$$$$$ #  $$$$$$$$$$$$$$$$$$$$$$",
"$$$$$$           $$$$$$$$$$$$$$$",
"$$$$$$$$  ++++++  $$$$$$$$$$$$$$",
"$$$$$$$$ ++OOOO+++   $$$$$$$$$$$",
"$$$$$$$$ ooOOOOOOO++  $$$$$$$$$$",
"$$$$$$$$ oooOOOOOOOO+  $$$$$$$$$",
"$$$$$$$$  ooOOOOOOOOO+   $$$$$$$",
"$$$$$$$$$ ooOOOO++++++++ $$$$$$$",
"$$$$$$$$$ ooOOOOOO       $$$$$$$",
"$$$$$$$$$ oooOOO        $$$$$$$$",
"$$$$$$$$$ oooOOO        $$$$$$$$",
"$$$$$$$$$ oooOO    X    $$$$$$$$",
"$$$$$$$$  oooOO    X    $$$$$$$$",
"$$$$$$$$ oooooO    X    $$$$$$$$",
"$$$$$$$$ oooooO    X    $$$$$$$$",
"$$$$$$$$  oooooO         $$$$$$$",
"$$$$$$$$  ooooooooooo+++ $$$$$$$",
"$$$$$$$$$       oo       $$$$$$$",
"$$$$$$$$$$$$$$     $$$$$$$$$$$$$",
"$$$$$$$$$$$$$   +  $$$$$$$$$$$$$",
"$$$$$$$$$$$$$  OO  $$$$$$$$$$$$$",
"$$$$$$$$$$$$$ OO  #$$$$$$$$$$$$$",
"$$$$$$$$$$$$     O  $$$$$$$$$$$$",
"$$$$$$$$$$$  . oooO  $$$$$$$$$$$",
"$$$$$$$$$$  . ooooO  $$$$$$$$$$$",
"$$$$$$$$$$ . ooooooO. $$$$$$$$$$",
"$$$$$$$$$$   OOOOOOO  $$$$$$$$$$",
"$$$$$$$$$$$           $$$$$$$$$$",
"$$$$$$$$$$$ @ $$$$$ @  $$$$$$$$$",
"$$$$$$$$$$$  $$$$$$$   $$$$$$$$$",
"$$$$$$$$$$$$$$$$$$$$$$$$$$$$$$$$"
};
