/* XPM */
static char *_644343457795[] = {
/* columns rows colors chars-per-pixel */
"32 32 8 1 ",
"  c black",
". c #63C64D",
"X c #4F6781",
"o c #0484D1",
"O c #2CE8F4",
"+ c #AFBFD2",
"@ c white",
"# c None",
/* pixels */
"###############   ##############",
"############### @ ##############",
"#############       ############",
"############  OOOOO  ###########",
"###########  OOOOOOO  ##########",
"##########  OooOOOooO  #########",
"#########  OOoooooooOO  ########",
"########  OOoooooooooOO  #######",
"######## XOoooooooooooOX #######",
"######## XoooooooooooooX #######",
"######## XoooooooooooooX #######",
"######## ooooooooooooooo #######",
"######## ooooooooooooooo #######",
"######## ooooooooooooooo #######",
"#######  ooooooooooooooo  ######",
"####### XoooooooooooooooX ######",
"####### XoooooooooooooooX ######",
"#######  ooooooooooooooo  ######",
"########                 #######",
"############  oOOOo  ###########",
"########### X ooooo X ##########",
"###########           ##########",
"###########           ##########",
"########### . ooooo  ###########",
"########### . oooooX ###########",
"########### . oooooo  ##########",
"###########   oOOOooo ##########",
"########### ooooo     ##########",
"########### XXXXX + o ##########",
"###########           ##########",
"#############   ################",
"################################"
};
