/* XPM */
static char *_644343422667[] = {
/* columns rows colors chars-per-pixel */
"32 32 8 1 ",
"  c black",
". c #63C64D",
"X c #FFE762",
"o c #4F6781",
"O c #0484D1",
"+ c #2CE8F4",
"@ c white",
"# c None",
/* pixels */
"################################",
"######   #######################",
"###### @  ######################",
"######           ###############",
"########  ++++++  ##############",
"######## ++OOOO+++   ###########",
"######## ooOOOOOOO+++ ##########",
"######## oooOOOOOOOO+  #########",
"########  ooOOOOOOOOO+   #######",
"######### ooOOOO++++++++ #######",
"######### ooOOOOOO       #######",
"######### oooOOO        ########",
"######### oooOOO        ########",
"######### oooOO    X    ########",
"########  oooOO    X    ########",
"######## oooooO    X    ########",
"######## oooooO    X    ########",
"########  oooooO         #######",
"########  ooooooooooo+++ #######",
"#########       oo       #######",
"############# O O++ ############",
"############# O  O+ ############",
"#############        ###########",
"############       @ ###########",
"############   . O+  ###########",
"############ o . O+ ############",
"############ o . O+ ############",
"###########  o   O+ ############",
"########### ooOOOO+ ############",
"###########         ############",
"#############      #############",
"################################"
};
