/* XPM */
static char *b4b21fba70334abbc2e804e13300fc2dJ4Sh8xG9IMVWSMOQ[] = {
/* columns rows colors chars-per-pixel */
"32 32 10 1 ",
"  c None",
". c black",
"X c #3F2832",
"o c #743F39",
"O c #E53B44",
"+ c #B86F50",
"@ c #E4A672",
"# c #2CE8F4",
"$ c #FF80B7",
"% c white",
/* pixels */
"       ..   ... ... .           ",
"        ... ..X. .X...          ",
"        .XX...X...XX...         ",
"    ..X ..XX...X...XX..         ",
"     .XX...XXXXXXXXXXX..        ",
"      .X.....XXXXXXXXXX..       ",
"       ..O......XXXXXXX...      ",
"         O#%$#%...X..XX.X.      ",
"         ......#..........      ",
"         .+++....%$..#%$..      ",
"         .++++++.......X..      ",
"         .@@.+@+++.....X..      ",
"         .@@..@@@.XXX@...       ",
"       ...@@..@@@XX.@@@..       ",
"       .@@@@..@@@@@@@+..        ",
"       ..+@@@@@@@@@@+..         ",
"        .+++@@@@@@.O+..         ",
"        ...++@@@...O..          ",
"          .......$...           ",
"            .$$$.$$.            ",
"            .$$$..$..           ",
"            ......$$.           ",
"           ..O.......           ",
"          .....$$$.@..          ",
"          .@.$$$$$..@.          ",
"          ..#$#$#$#...          ",
"           .........            ",
"          . .ooo.o.             ",
"          ..ooo..oo.            ",
"           .oo. ..o.            ",
"            .. ....             ",
"                                "
};
