/* XPM */
static char *_644343374875[] = {
/* columns rows colors chars-per-pixel */
"32 32 6 1 ",
"  c black",
". c #4F6781",
"X c #0484D1",
"o c #2CE8F4",
"O c #AFBFD2",
"+ c white",
/* pixels */
"OO............................OO",
"OO............................OO",
"..++++++++++++++++++++++++++++..",
"..+ooOOooOOooOOooOOooOOooOOoo+..",
"..+ooOOooOOooOOooOOooOOooOOoo+..",
"..+OO.X++++++++++++++++++.XOO+..",
"..+OOX.+XX..XX..XX..XX..+X.OO+..",
"..+oo.X+XX..XX..XX..XX..+.Xoo+..",
"..+ooX.+..++OOOOOOOO++XX+X.oo+..",
"..+OO.X+..++OOOOOOOO++XX+.XOO+..",
"..+OOX.+XXOO........OO..+X.OO+..",
"..+oo.X+XXOO...  ...OO..+.Xoo+..",
"..+ooX.+..OO..    ..OOXX+X.oo+..",
"..+OO.X+..OO.      .OOXX+.XOO+..",
"..+OOX.+XXOO.      .OO..+X.OO+..",
"..+oo.X+XXOO..    ..OO..+.Xoo+..",
"..+ooX.+..OO...  ...OOXX+X.oo+..",
"..+OO.X+..OO...  ...OOXX+.XOO+..",
"..+OOX.+XXOO..    ..OO..+X.OO+..",
"..+oo.X+XXOO..    ..OO..+.Xoo+..",
"..+ooX.+..OO..    ..OOXX+X.oo+..",
"..+OO.X+..OO........OOXX+.XOO+..",
"..+OOX.+XX++OOOOOOOO++..+X.OO+..",
"..+oo.X+XX++OOOOOOOO++..+.Xoo+..",
"..+ooX.+..XX..XX..XX..XX+X.oo+..",
"..+OO.X+..XX..XX..XX..XX+.XOO+..",
"..+OOX.++++++++++++++++++X.OO+..",
"..+ooOOooOOooOOooOOooOOooOOoo+..",
"..+ooOOooOOooOOooOOooOOooOOoo+..",
"..++++++++++++++++++++++++++++..",
"OO............................OO",
"OO............................OO"
};
