/* XPM */
static char *_644343285216[] = {
/* columns rows colors chars-per-pixel */
"32 32 9 1 ",
"  c black",
". c #3F2832",
"X c #743F39",
"o c #E53B44",
"O c #B86F50",
"+ c #E4A672",
"@ c #2CE8F4",
"# c #FF80B7",
"$ c None",
/* pixels */
"$$$$$$$$$$$$$  $$$  $$  $$$$$$$$",
"$$$$$$$$$$$    $    $   $$$$$$$$",
"$$$$$$$$$$$  .    .   . $  $$$$$",
"$$$$$$$$$$  ..   ..  ..    $$$$$",
"$$$$$$$$$  ...  ..  ..   . $$$$$",
"$$$$$$$$   ... ... ..  ... $$$$$",
"$$$$$$$$  ... ... ... ... $$$$$$",
"$$$$$$$$ ... ... ... ...  $$$$$$",
"$$$$$$$$ ............... $$$$$$$",
"$$$$$$$$ ............... $$$$$$$",
"$$$$$$$$ ............... $$$$$$$",
"$$$$$$$  ...............  $$$$$$",
"$$$$$$$   .............   $$$$$$",
"$$$$$$$ +  ...........  + $$$$$$",
"$$$$$$$ +O  .........  O+ $$$$$$",
"$$$$$$$  OO  . . . .  OO  $$$$$$",
"$$$$$$$$   o         o   $$$$$$$",
"$$$$$$$$$$    +++++     $$$$$$$$",
"$$$$$$$$$$$ #       # $$$$$$$$$$",
"$$$$$$$$$$$ # ##### # $$$$$$$$$$",
"$$$$$$$$$$$ # ##### # $$$$$$$$$$",
"$$$$$$$$$$$           $$$$$$$$$$",
"$$$$$$$$$$$         + $$$$$$$$$$",
"$$$$$$$$$$$   ##### + $$$$$$$$$$",
"$$$$$$$$$$$   ##### + $$$$$$$$$$",
"$$$$$$$$$$$  @#@#@#   $$$$$$$$$$",
"$$$$$$$$$$$$         $$$$$$$$$$$",
"$$$$$$$$$$$$$     X $$$$$$$$$$$$",
"$$$$$$$$$$$$$ X $ X $$$$$$$$$$$$",
"$$$$$$$$$$$$$ X $   $$$$$$$$$$$$",
"$$$$$$$$$$$$$   $$$$$$$$$$$$$$$$",
"$$$$$$$$$$$$$$$$$$$$$$$$$$$$$$$$"
};
