/* XPM */
static char *_644343381635[] = {
/* columns rows colors chars-per-pixel */
"32 32 5 1 ",
"  c black",
". c #E53B44",
"X c #FB922B",
"o c #FFE762",
"O c None",
/* pixels */
"OOOOOOOOOOOOOOOOOOOOOOOOOOOOOOOO",
"OOOOOOOOOOOOOOOOOOOOOOOOOOOOOOOO",
"OOOOOOOOOOOOOOOOOOOOOOOOOOOOOOOO",
"OOOOOOOOOOOOOOOOOOOOOOOOOOOOOOOO",
"OOOOOOOOOOOOOOOOOOOOOOOOOOOOOOOO",
"OOOOOOOOOOOOOOOOOOOOOOOOOOOOOOOO",
"OOOOOOOOOOOOOOOOOOOOOOOOOOOOOOOO",
"OOOOOOOOOOOOOOOOOOOOOOOOOOOOOOOO",
"    OOOOOOOOOOOO   OOOOOOOOOOOOO",
" oo  OOOOOOOOOO  o  OOOOOOOOOOOO",
"  Xo  OOOOOOOOO XXX OOOOOOOOOOOO",
"O  Xo  OOOOOOO  XXX  OOOOOOOOOOO",
"OO XXo   OOO           OOOOOOOOO",
"OO  XXoo     ooooooooo         O",
"OOO  XXXoo  o.o.o.o.o.o  ooooo  ",
"OOOO  XXX  XXXXXXXXXXXXX      o ",
"OOOOO  X  XXXXXXXXXXXXXXX  OO o ",
"OOOOOO   ooooooooooooooooo O  X ",
"OOOOOOO  .o.o.o.o.o.o.o.o  O XX ",
"OOOOOOOO  XXXXXXXXXXXXXX  OO X  ",
"OOOOOOOOO  XXXXXXXXXXXX      X O",
"OOOOOOOOOO  XXXXXXXXXX  XXXXX  O",
"OOOOOOOOOOO                   OO",
"OOOOOOOOOOOO XXXXXXXX OOOOOOOOOO",
"OOOOOOOOOOO oooooooooo OOOOOOOOO",
"OOOOOOOOOO o.o.o.o.o.oX OOOOOOOO",
"OOOOOOOOO XXXXXXXXXXXXXX OOOOOOO",
"OOOOOOOOO                OOOOOOO",
"OOOOOOOOOOOOOOOOOOOOOOOOOOOOOOOO",
"OOOOOOOOOOOOOOOOOOOOOOOOOOOOOOOO",
"OOOOOOOOOOOOOOOOOOOOOOOOOOOOOOOO",
"OOOOOOOOOOOOOOOOOOOOOOOOOOOOOOOO"
};
