/* XPM */
static char *_644343398869[] = {
/* columns rows colors chars-per-pixel */
"32 32 8 1 ",
"  c black",
". c #6A6A6A",
"X c #E53B44",
"o c #FB922B",
"O c #FFE762",
"+ c #959595",
"@ c white",
"# c None",
/* pixels */
"################################",
"################################",
"##   ###########################",
"## o ###########################",
"##    ##########################",
"####   #########################",
"#####   ########################",
"######         #################",
"####### XXOOOO #################",
"####### XXo    #################",
"####### Oo + ###################",
"####### o . + ##################",
"####### o  . + #################",
"#######   # . @ ################",
"#######   ## . @ ###############",
"############# . + ##############",
"############## + + #############",
"############### + + ############",
"################ . + ###########",
"################# . + ##########",
"################## . + #########",
"################### . + ########",
"#################### . + #######",
"##################### . @ ######",
"###################### . @ #####",
"####################### + + ####",
"######################## + + ###",
"######################### . + ##",
"##########################  . ##",
"###########################   ##",
"################################",
"################################"
};
