/* XPM */
static char *_644343444162[] = {
/* columns rows colors chars-per-pixel */
"32 32 7 1 ",
"  c black",
". c #63C64D",
"X c #4F6781",
"o c #0484D1",
"O c #2CE8F4",
"+ c white",
"@ c None",
/* pixels */
"@@@@@@@@@@@@@@@@@@@@@@@@@@@@@@@@",
"@@@@@@@@@@@@@@@   @@@@@@@@@@@@@@",
"@@@@@@@@@@@@@@@ + @@@@@@@@@@@@@@",
"@@@@@@@@@@@@@       @@@@@@@@@@@@",
"@@@@@@@@@@@@  OOOOO  @@@@@@@@@@@",
"@@@@@@@@@@@  OOOOOOO  @@@@@@@@@@",
"@@@@@@@@@@  OooOOOooO  @@@@@@@@@",
"@@@@@@@@@  OOoooooooOO  @@@@@@@@",
"@@@@@@@@  OOoooooooooOO  @@@@@@@",
"@@@@@@@@ XOoooooooooooOX @@@@@@@",
"@@@@@@@@ XoooooooooooooX @@@@@@@",
"@@@@@@@@ XoooooooooooooX @@@@@@@",
"@@@@@@@@ ooooooooooooooo @@@@@@@",
"@@@@@@@@ ooooooooooooooo @@@@@@@",
"@@@@@@@@ ooooooooooooooo @@@@@@@",
"@@@@@@@  ooooooooooooooo  @@@@@@",
"@@@@@@@ XoooooooooooooooX @@@@@@",
"@@@@@@@ XoooooooooooooooX @@@@@@",
"@@@@@@@  ooooooooooooooo  @@@@@@",
"@@@@@@@@                 @@@@@@@",
"@@@@@@@@@@@ X oOOOo X @@@@@@@@@@",
"@@@@@@@@@@    ooooo    @@@@@@@@@",
"@@@@@@@@@  .         .  @@@@@@@@",
"@@@@@@@@@ .           . @@@@@@@@",
"@@@@@@@@@ .   ooooo   . @@@@@@@@",
"@@@@@@@@@    XoooooX    @@@@@@@@",
"@@@@@@@@@@@@ XoooooX @@@@@@@@@@@",
"@@@@@@@@@@@  XoOOOoX  @@@@@@@@@@",
"@@@@@@@@@@@ XXXXXXXXX @@@@@@@@@@",
"@@@@@@@@@@@           @@@@@@@@@@",
"@@@@@@@@@@@@@   @   @@@@@@@@@@@@",
"@@@@@@@@@@@@@@@@@@@@@@@@@@@@@@@@"
};
