/* XPM */
static char *_01b1b0512af49a5d3a8df49e36845ff392Ot2OdCLo09QXV[] = {
/* columns rows colors chars-per-pixel */
"32 32 10 1 ",
"  c None",
". c black",
"X c #3F2832",
"o c #743F39",
"O c #E53B44",
"+ c #B86F50",
"@ c #E4A672",
"# c #2CE8F4",
"$ c #FF80B7",
"% c white",
/* pixels */
"       ..   ... ... .           ",
"        ... ..X. .X...          ",
"        .XX...X...XX...         ",
"    ..X ..XX...X...XX..         ",
"     .XX...XXXXXXXXXXX..        ",
"      .X.....XXXXXXXXXX..       ",
"       ..O......XXXXXXX...      ",
"         O#%$#%...X..XX.X.      ",
"         ......#..........      ",
"         .+++....%$..#%$..      ",
"         .++++++.......X..      ",
"         .@@.+@+++.....X..      ",
"         .@@..@@@.XXX@...       ",
"       ...@@..@@@XX.@@@..       ",
"       .@@@@..@@@..@@+@.        ",
"       ..+@@@@@@@@@@++..        ",
"        .+++@@@@@@.O+..         ",
"        ...++@@@...O..          ",
"          .......$...           ",
"            .$..$$.             ",
"            ...$$..             ",
"            ....$..             ",
"           ..@@.....            ",
"          ..@@..$$.@..          ",
"          .@@..$$$..@.          ",
"          ....#$#$#...          ",
"           .........            ",
"          . .o.ooo.             ",
"          ..ooo.ooo.            ",
"           .oo. .oo.            ",
"            .. ....             ",
"                                "
};
