/* XPM */
static char *_944e88911144521fa2fc6c089e3d038frVhoTbjMI13BS8j[] = {
/* columns rows colors chars-per-pixel */
"32 32 6 1 ",
"  c None",
". c #6C3B4F",
"X c #B8614E",
"o c #FFCE00",
"O c #F29546",
"+ c #FBFCAA",
/* pixels */
"                                ",
"                                ",
"             ......             ",
"          ...++++OO...          ",
"         .+++oooooooOO.         ",
"        .+oooooooooooOO.        ",
"       .+ooOOOOOOoooooOO.       ",
"      .+ooOooooooOOooooOO.      ",
"     .+ooOoooooooooOooooOO.     ",
"     .ooOooo+o+oooooOoooOO.     ",
"    .+ooOoooo+oooooooOoooOO.    ",
"    .ooOooo+ooo+oooooOoooOO.    ",
"    .ooOoooOoOOOoooooOoooOO.    ",
"   .+ooOoooOOooOooooooooooOO.   ",
"   .oooooooOo+ooooooooooooOO.   ",
"   .ooooOOoOoo+oooOOooooooOO.   ",
"   .oooo++ooOooooo++ooooooOO.   ",
"   .oooooooooOo+ooooooooooOO.   ",
"   .Ooooooo+ooOOooooooooooOX.   ",
"    .oo+oooO++OOoooooooooOO.    ",
"    .oo+oooOoooOooooo+oooOO.    ",
"    .Oo+oooOoOoOooooo+oooOX.    ",
"     .oo+oooOoOoooooo+ooOO.     ",
"     .Oo+ooooooooooo+oooOX.     ",
"      .Oo+ooooooooo+oooOX.      ",
"       .Oo+oooooo++oooOX.       ",
"        .Oo++++++ooooOX.        ",
"         .OoooooooooOX.         ",
"          ...OoooOO...          ",
"             ......             ",
"                                ",
"                                "
};
