/* XPM */
static char *_644343143336[] = {
/* columns rows colors chars-per-pixel */
"32 32 3 1 ",
"  c #4F6781",
". c #AFBFD2",
"X c white",
/* pixels */
"..X....................X........",
".  .............X.....  ........",
".........X.....  ...............",
"........  ............X.........",
"....X................  .........",
"...  .........X.................",
".........X...  .............X...",
"........  .................  ...",
"....X..................X........",
"...  .......X....X....  ........",
"...........  ...  ..............",
"..............................X.",
".............................  .",
"...X......X.........X...........",
"..  .....  ........  ...........",
"..............X.........X.......",
".............  ........  .......",
"................................",
"................................",
"....X.........X............X....",
"...  ........  ...........  ....",
".........X..........X...........",
"..X.....  .........  ...........",
".  ...........X.........X.......",
"......X......  ...X....  .....X.",
".....  ..........  ..........  .",
"...........X....................",
"..........  .........X..........",
".....X..............  ..........",
"....  ........X............X....",
".............  ...........  ....",
"................................"
};
