/* XPM */
static char *_644343099212[] = {
/* columns rows colors chars-per-pixel */
"32 32 5 1 ",
"  c #4F6781",
". c #0484D1",
"X c #2CE8F4",
"o c #AFBFD2",
"O c white",
/* pixels */
"OOooooooooooooooooooooooooooooOO",
"OOooooooooooooooooooooooooooooOO",
"ooXX                        XXoo",
"ooXX                        XXoo",
"oo  XOOOOOOOOOOOOOOOOOOOOOOX  oo",
"oo  OXO..................OXO  oo",
"oo  OOXO.......XX.......OXOO  oo",
"oo  O.OXO.....XXXX.....OXO.O  oo",
"oo  O..OXO...XXOOXX...OXO..O  oo",
"oo  O...OXO..  OO  ..OXO...O  oo",
"oo  O....OXO..    ..OXO....O  oo",
"oo  O.....OXO..  ..OXO.....O  oo",
"oo  O......OXO....OXO......O  oo",
"oo  O...Oo..OXO..OXO..oO...O  oo",
"oo  O..OOoo..OXOOXO..ooOO..O  oo",
"oo  O.OOXXoo..OXXO..ooXXOO.O  oo",
"oo  O.OOXXoo..OXXO..ooXXOO.O  oo",
"oo  O..OOoo..OXOOXO..ooOO..O  oo",
"oo  O...Oo..OXO..OXO..oO...O  oo",
"oo  O......OXO....OXO......O  oo",
"oo  O.....OXO..  ..OXO.....O  oo",
"oo  O....OXO..    ..OXO....O  oo",
"oo  O...OXO..  OO  ..OXO...O  oo",
"oo  O..OXO...XXOOXX...OXO..O  oo",
"oo  O.OXO.....XXXX.....OXO.O  oo",
"oo  OOXO.......XX.......OXOO  oo",
"oo  OXO..................OXO  oo",
"oo  XOOOOOOOOOOOOOOOOOOOOOOX  oo",
"ooXX                        XXoo",
"ooXX                        XXoo",
"OOooooooooooooooooooooooooooooOO",
"OOooooooooooooooooooooooooooooOO"
};
