/* XPM */
static char *d3461afcfa8446819457b64c8087ea28weyMePaaHYgnkENj[] = {
/* columns rows colors chars-per-pixel */
"32 32 5 1 ",
"  c #4F6781",
". c #0484D1",
"X c #2CE8F4",
"o c #AFBFD2",
"O c white",
/* pixels */
"OOOOOOOOOOOOOOOOOOOOOOOOOOOOOOOO",
"OOOOOOOOOOOOOOOOOOOOOOOOOOOOOOOO",
"OOXXooooooooooooooooooooooooXXOO",
"OOXXooooooooooooooooooooooooXXOO",
"OOoo                        ooOO",
"OOoo                        ooOO",
"OOoo  XX................XX  ooOO",
"OOoo  XX................XX  ooOO",
"OOoo  ..oooooooOOooooooo..  ooOO",
"OOoo  ..o.....OXXO.....o..  ooOO",
"OOoo  ..o.....OXXO.....o..  ooOO",
"OOoo  ..o..X   OO   X..o..  ooOO",
"OOoo  ..o.. X      X ..o..  ooOO",
"OOoo  ..o..  X XX X  ..o..  ooOO",
"OOoo  ..oOO   XXXX   OOo..  ooOO",
"OOoo  ..OXXO XXOOXX OXXO..  ooOO",
"OOoo  ..OXXO XXOOXX OXXO..  ooOO",
"OOoo  ..oOO   XXXX   OOo..  ooOO",
"OOoo  ..o..  X XX X  ..o..  ooOO",
"OOoo  ..o.. X      X ..o..  ooOO",
"OOoo  ..o..X   OO   X..o..  ooOO",
"OOoo  ..o.....OXXO.....o..  ooOO",
"OOoo  ..o.....OXXO.....o..  ooOO",
"OOoo  ..oooooooOOooooooo..  ooOO",
"OOoo  XX................XX  ooOO",
"OOoo  XX................XX  ooOO",
"OOoo                        ooOO",
"OOoo                        ooOO",
"OOXXooooooooooooooooooooooooXXOO",
"OOXXooooooooooooooooooooooooXXOO",
"OOOOOOOOOOOOOOOOOOOOOOOOOOOOOOOO",
"OOOOOOOOOOOOOOOOOOOOOOOOOOOOOOOO"
};
