/* XPM */
static char *b18c37396fa1400d82f2f8109a23099f5foh6eZ6kmGJzifm[] = {
/* columns rows colors chars-per-pixel */
"32 32 5 1 ",
"  c #4F6781",
". c #0484D1",
"X c #2CE8F4",
"o c #AFBFD2",
"O c white",
/* pixels */
"OO............................OO",
"OO............................OO",
"..o                          o..",
".. o                        o ..",
"..  oooooOOOOXX..XXOOOOooooo  ..",
"..  oooooOOOOXX..XXOOOOooooo  ..",
"..  oooooooOOOXXXXOOOooooooo  ..",
"..  oooXXXoOOOXXXXOOOoXXXooo  ..",
"..  oooX...ooOOXXOOoo...Xooo  ..",
"..  OOoX.O.XoOOXXOOoX.O.XoOO  ..",
"..  OOoo...XoooOOoooX...ooOO  ..",
"..  OOOOoXXXoooOOoooXXXoOOOO  ..",
"..  OOOOoooooo....ooooooOOOO  ..",
"..  XXOOOOooo..XX..oooOOOOXX  ..",
"..  XXXOOOoo..XXXX..ooOOXXXX  ..",
"..  ..XXXXOO.XX..XX.OOXXXX..  ..",
"..  ..XXXXOO.XX..XX.OOXXXX..  ..",
"..  XXXXOOoo..XXXX..ooOOXXXX  ..",
"..  XXOOOOooo..XX..oooOOOOXX  ..",
"..  OOOOoooooo....ooooooOOOO  ..",
"..  OOOOoXXXoooOOoooXXXoOOOO  ..",
"..  OOoo...XoooOOoooX...ooOO  ..",
"..  OOoX.O.XoOOXXOOoX.O.XoOO  ..",
"..  oooX...ooOOXXOOoo...Xooo  ..",
"..  oooXXXoOOOXXXXOOOoXXXooo  ..",
"..  oooooooOOOXXXXOOOooooooo  ..",
"..  oooooOOOOXX..XXOOOOooooo  ..",
"..  oooooOOOOXX..XXOOOOooooo  ..",
".. o                        o ..",
"..o                          o..",
"OO............................OO",
"OO............................OO"
};
