/* XPM */
static char *_644343368897[] = {
/* columns rows colors chars-per-pixel */
"32 32 5 1 ",
"  c black",
". c #FB922B",
"X c #FFE762",
"o c white",
"O c None",
/* pixels */
"OOOOOOOOOOOOOOOOOOOOOOOOOOOOOOOO",
"OOOOOOOOOOOOOOOOOOOOOOOOOOOOOOOO",
"OO        OOOOOOOOOOOOOOOOOOOOOO",
"OO XXoooX OOOOOOOOOOOOOOOOOOOOOO",
"OO .    X OOOOOOOOOOOOOOOOOOOOOO",
"OO . OO X OOOOOOOOOOOOOOOOOOOOOO",
"OO . OO X OOOOOOOOOOOOOOOOOOOOOO",
"OO .    X OOOOOOOOOOOOOOOOOOOOOO",
"OO .....X OOOOOOOOOOOOOOOOOOOOOO",
"OO      .X OOOOOOOOOOOOOOOOOOOOO",
"OOOOOOOO .X OOOOOOOOOOOOOOOOOOOO",
"OOOOOOOOO .X OOOOOOOOOOOOOOOOOOO",
"OOOOOOOOOO .X OOOOOOOOOOOOOOOOOO",
"OOOOOOOOOOO .X OOOOOOOOOOOOOOOOO",
"OOOOOOOOOOOO .X OOOOOOOOOOOOOOOO",
"OOOOOOOOOOOOO .X OOOOOOOOOOOOOOO",
"OOOOOOOOOOOOOO .X OOOOOOOOOOOOOO",
"OOOOOOOOOOOOOOO .X OOOOOOOOOOOOO",
"OOOOOOOOOOOOOOOO .X OOOOOOOOOOOO",
"OOOOOOOOOOOOOOOOO .X OOOOOOOOOOO",
"OOOOOOOOOOOOOOOO ..oX OOOOOOOOOO",
"OOOOOOOOOOOOOOO ...ooX OOOOOOOOO",
"OOOOOOOOOOOOOO ..X   XX OOOOOOOO",
"OOOOOOOOOOOOO ..X OO ..X OOOOOOO",
"OOOOOOOOOOOOOO X OO ...XX  OOOOO",
"OOOOOOOOOOOOOOO OO ....XXoo OOOO",
"OOOOOOOOOOOOOOOOO ....X  XX OOOO",
"OOOOOOOOOOOOOOOO ....X O    OOOO",
"OOOOOOOOOOOOOOOOO ..X OOOOOOOOOO",
"OOOOOOOOOOOOOOOOOO X OOOOOOOOOOO",
"OOOOOOOOOOOOOOOOOOO OOOOOOOOOOOO",
"OOOOOOOOOOOOOOOOOOOOOOOOOOOOOOOO"
};
