/* XPM */
static char *_3f2bb0989a14857b6499807cd8b86c2qJBPg2djzkaxUzEt[] = {
/* columns rows colors chars-per-pixel */
"32 32 5 1 ",
"  c #4F6781",
". c #0484D1",
"X c #2CE8F4",
"o c #AFBFD2",
"O c white",
/* pixels */
"OOOOOOOooooooooooooooooooOOOOOOO",
"OOOOOOOooooooooooooooooooOOOOOOO",
"OO...OO                  OO...OO",
"OO...OO                  OO...OO",
"OO...OOXXooOOOOOOOOOOooXXOO...OO",
"OOOOOOOXXooOOOO..OOOOooXXOOOOOOO",
"OOOOOOOXXooOOO....OOOooXXOOOOOOO",
"oo  XXXXXooOOOXXXXOOOooXXXXX  oo",
"oo  XXXXXooOOOOXXOOOOooXXXXX  oo",
"oo  ooooo....OOOOOO....ooooo  oo",
"oo  ooooo.XX.OO  OO.XX.ooooo  oo",
"oo  OOOOO.XX.O    O.XX.OOOOO  oo",
"oo  OOOOO....      ....OOOOO  oo",
"oo  OOOOOOOO   XX   OOOOOOOO  oo",
"oo  OO.XOOO   XXXX   OOOX.OO  oo",
"oo  O..XXO   XXXXXX   OXX..O  oo",
"oo  O..XXOooo......oooOXX..O  oo",
"oo  OO.XOOOooo....oooOOOX.OO  oo",
"oo  OOOOOOOOooo..oooOOOOOOOO  oo",
"oo  OOOOO....oooooo....OOOOO  oo",
"oo  OOOOO.XX.OooooO.XX.OOOOO  oo",
"oo  ooooo.XX.OOooOO.XX.ooooo  oo",
"oo  ooooo....OOOOOO....ooooo  oo",
"oo  XXXXXooOOOOXXOOOOooXXXXX  oo",
"oo  XXXXXooOOOXXXXOOOooXXXXX  oo",
"OOOOOOOXXooOOO....OOOooXXOOOOOOO",
"OOOOOOOXXooOOOO..OOOOooXXOOOOOOO",
"OO...OOXXooOOOOOOOOOOooXXOO...OO",
"OO...OO                  OO...OO",
"OO...OO                  OO...OO",
"OOOOOOOooooooooooooooooooOOOOOOO",
"OOOOOOOooooooooooooooooooOOOOOOO"
};
