/* XPM */
static char *d21e630ea1d247aaa318abc4d21799e1G5OvlP9MQDxzjUqs[] = {
/* columns rows colors chars-per-pixel */
"32 32 5 1 ",
"  c #4F6781",
". c #0484D1",
"X c #2CE8F4",
"o c #AFBFD2",
"O c white",
/* pixels */
"                                ",
"                                ",
"  XXOOXXOOXXOOXXOOXXOOXXOOXXOO  ",
"  XXOOXXOOXXOOXXOOXXOOXXOOXXOO  ",
"  OOooooooooooooooooooooooooXX  ",
"  OOooooooooooooooooooooooooXX  ",
"  XXoo   .....XOOX.....   ooOO  ",
"  XXoo X ..XX.XOOX.XX.. X ooOO  ",
"  OOoo   ..XX.XOOX.XX..   ooXX  ",
"  OOooXOOX....XOOX....XOOXooXX  ",
"  XXoo.XOOX...XOOX...XOOX.ooOO  ",
"  XXoo..XOOX..XOOX..XOOX..ooOO  ",
"  OOoo...XOOX.XOOX.XOOX...ooXX  ",
"  OOoo....XOOXX  XXOOX....ooXX  ",
"  XXoo.....XOXX  XXOX.....ooOO  ",
"  XXoo.XX...X  OO  X...XX.ooOO  ",
"  OOoo.XX...X  OO  X...XX.ooXX  ",
"  OOoo.....XOXX  XXOX.....ooXX  ",
"  XXoo....XOOXX  XXOOX....ooOO  ",
"  XXoo...XOOX.XOOX.XOOX...ooOO  ",
"  OOoo..XOOX..XOOX..XOOX..ooXX  ",
"  OOoo.XOOX...XOOX...XOOX.ooXX  ",
"  XXooXOOX....XOOX....XOOXooOO  ",
"  XXoo   ..XX.XOOX.XX..   ooOO  ",
"  OOoo X ..XX.XOOX.XX.. X ooXX  ",
"  OOoo   .....XOOX.....   ooXX  ",
"  XXooooooooooooooooooooooooOO  ",
"  XXooooooooooooooooooooooooOO  ",
"  OOXXOOXXOOXXOOXXOOXXOOXXOOXX  ",
"  OOXXOOXXOOXXOOXXOOXXOOXXOOXX  ",
"                                ",
"                                "
};
