/* XPM */
static char *_f70d3e7eb334455ca77c9bd4b531cfez8RO0Vyof2WSf7Zy[] = {
/* columns rows colors chars-per-pixel */
"32 32 5 1 ",
"  c #4F6781",
". c #0484D1",
"X c #2CE8F4",
"o c #AFBFD2",
"O c white",
/* pixels */
"XXooooooooooooooooooooooooooooXX",
"XXooooooooooooooooooooooooooooXX",
"oo    .........OO.........    oo",
"oo OO ........OXXO........ OO oo",
"oo OO .......OXXXXO....... OO oo",
"oo    ......OXX..XXO......    oo",
"oo....OOOO..O  ..  O..OOOO....oo",
"oo....OXXO...O    O...OXXO....oo",
"oo....OXXO..OO    OO..OXXO....oo",
"oo....OOOO..O  oo  O..OOOO....oo",
"oo........OOO o..o OOO........oo",
"oo........O   o..o   O........oo",
"oo...OO..OO OOooooOO OO..OO...oo",
"oo..OX OO   OOoXXoOO   OO XO..oo",
"oo.OXX    ooooXXXXoooo    XXO.oo",
"ooOXX..  o..oXX  XXo..o  ..XXOoo",
"ooOXX..  o..o..  ..o..o  ..XXOoo",
"oo.OXX    oooo....oooo    XXO.oo",
"oo..OX OO   OOo..oOO   OO XO..oo",
"oo...OO..OO OOooooOO OO..OO...oo",
"oo........O   o..o   O........oo",
"oo........OOO o..o OOO........oo",
"oo....OOOO..O  oo  O..OOOO....oo",
"oo....OXXO..OO    OO..OXXO....oo",
"oo....OXXO...O    O...OXXO....oo",
"oo....OOOO..O  ..  O..OOOO....oo",
"oo    ......OXX..XXO......    oo",
"oo OO .......OXXXXO....... OO oo",
"oo OO ........OXXO........ OO oo",
"oo    .........OO.........    oo",
"XXooooooooooooooooooooooooooooXX",
"XXooooooooooooooooooooooooooooXX"
};
