/* XPM */
static char *_6df20553db546d7b68d54ef078221e1rhvUzIcIRzXfBHf8[] = {
/* columns rows colors chars-per-pixel */
"32 32 8 1 ",
"  c black",
". c #193D3F",
"X c #4F6781",
"o c #0484D1",
"O c #2CE8F4",
"+ c #E8858A",
"@ c #AFBFD2",
"# c white",
/* pixels */
"XXXXXXXXXXXXXXXXXXXXXXXXXXXXXXXX",
"XXXXXXXXXXXXXXXXXXXXXXXXXXXXXXXX",
"XXoo##oo##oo##oo##oo##oo##oo##XX",
"XXoo##oo##oo##oo##oo##oo##oo##XX",
"XX##XXXX################XXXXooXX",
"XX##XOOX@@@@@@@@@@@@@@@@XOOXooXX",
"XXooXOOX           @    XOOX##XX",
"XXooXXXX    @     XX    XXXX##XX",
"XX###@     XX             @#ooXX",
"XX###@                @   @#ooXX",
"XXoo#@  @   ++++++++ XX   @###XX",
"XXoo#@ XX  +########+    @@###XX",
"XX###@    +##OOOOOO##+  XX@#ooXX",
"XX###@   +##OooooooO##+   @#ooXX",
"XXoo#@ ++###Oo    oO###++ @###XX",
"XXoo#@+#####Oo    oO#####+@###XX",
"XX###@+#####Oo    oO#####+@#ooXX",
"XX###@ ++###Oo    oO###++ @#ooXX",
"XXoo#@  @+##OooooooO##+   @###XX",
"XXoo#@ XX +##OOOOOO##+    @###XX",
"XX###@     +########+   @ @#ooXX",
"XX###@  @   ++++++++   XX @#ooXX",
"XXoo#@ XX    @       @    @###XX",
"XXoo#@      XX   @  XX    @###XX",
"XX##XXXX  @     XX      XXXXooXX",
"XX##XOOX XX             XOOXooXX",
"XXooXOOX@@@@@@@@@@@@@@@@XOOX##XX",
"XXooX.XX################XXXX##XX",
"XX##oo##oo##oo##oo##oo##oo##ooXX",
"XX##oo##oo##oo##oo##oo##oo##ooXX",
"XXXXXXXXXXXXXXXXXXXXXXXXXXXXXXXX",
"XXXXXXXXXXXXXXXXXXXXXXXXXXXXXXXX"
};
