/* XPM */
static char *_436952dc1764a4ff25726d345386169LedTJrScwwh6gHHH[] = {
/* columns rows colors chars-per-pixel */
"32 32 5 1 ",
"  c #4F6781",
". c #0484D1",
"X c #2CE8F4",
"o c #AFBFD2",
"O c white",
/* pixels */
"OOXXXXXXXXXXXXXXXXXXXXXXXXXXXXOO",
"OOXXXXXXXXXXXXXXXXXXXXXXXXXXXXOO",
"XXooOOOOOOOOOOOOOOOOOOOOOOOOooXX",
"XXooOOOOOOOOOOOOOOOOOOOOOOOOooXX",
"XXOOoo     ooXX..XX         OOXX",
"XXOOoo     ooXOOOOX         OOXX",
"XXOO  .....  XO  OX  .....  OOXX",
"XXOO  .XXXX  XOOOOX  XXXX.  OOXX",
"XXOO  .XOOX  XX..XX  XOOX.  OOXX",
"XXOO  .XOOX  XO..OX  XOOX.  OOXX",
"XXOO  .XXXX  OO..OO  XXXX.  OOXX",
"XXOOoo     OOOO..OOOO       OOXX",
"XXOOoo     OOO....OOO       OOXX",
"XXOOXXXXXXOOO..  ..OOOXXXXXXOOXX",
"XXOOXOOOXOOO..    ..OOOXOOOXOOXX",
"XXOO.O O.....  XX  .....O O.OOXX",
"XXOO.O O.....  XX  .....O O.OOXX",
"XXOOXOOOXOOO..    ..OOOXOOOXOOXX",
"XXOOXXXXXXOOO..  ..OOOXXXXXXOOXX",
"XXOOoo     OOO....OOO     ooOOXX",
"XXOOoo     OOOO..OOOO     ooOOXX",
"XXOO  .XXXX  OO..OO  XXXX.  OOXX",
"XXOO  .XOOX  XO..OX  XOOX.  OOXX",
"XXOO  .XOOX  XX..XX  XOOX.  OOXX",
"XXOO  .XXXX  XOOOOX  XXXX.  OOXX",
"XXOO  .....  XO  OX  .....  OOXX",
"XXOOoo     ooXOOOOXoo     ooOOXX",
"XXOOoo     ooXX..XXoo     ooOOXX",
"XXooOOOOOOOOOOOOOOOOOOOOOOOOooXX",
"XXooOOOOOOOOOOOOOOOOOOOOOOOOooXX",
"OOXXXXXXXXXXXXXXXXXXXXXXXXXXXXOO",
"OOXXXXXXXXXXXXXXXXXXXXXXXXXXXXOO"
};
