/* XPM */
static char * ennemy_xpm[] = {
"28 32 20 1",
" 	c None",
".	c #CCAB93",
"+	c #FFFFFF",
"@	c #DCBEA7",
"#	c #78D1D5",
"$	c #BABADE",
"%	c #B8977F",
"&	c #89837E",
"*	c #F4F3F3",
"=	c #DEDEDE",
"-	c #7D5125",
";	c #96674A",
">	c #A67251",
",	c #8C563A",
"'	c #1C1C1C",
")	c #242424",
"!	c #383838",
"~	c #4A2D20",
"{	c #69412D",
"]	c #000000",
"                            ",
"              ..+++         ",
"             ..@+#+         ",
"            $$$$+++$        ",
"            %.&@@@&@        ",
"            %.@&@&@@        ",
"            %.+@@@+@        ",
"            *.@@@@@*        ",
"            =.@***@=        ",
"           =*=**@*=*=       ",
"           =**=*.=**=       ",
"           -=**==**=-       ",
"          -;-=****=---      ",
"         -;;;-====->>;-     ",
"         -;>>;,,,,;>;;-     ",
"         ,;>>>;,>>>,>;-     ",
"        -;>>,>;,,>;,>;-     ",
"        -;>,->;,;,>,>;-     ",
"        -;;>,>;,;,>,;;-     ",
"         -...-;,,>>,---     ",
"          ..+--',--'--      ",
"          +#+)!!'!!'.       ",
"          ~+~)!))!)!'       ",
"          ~{~)!)))!)'       ",
"          ~{'!!))!!!'       ",
"          ~{'!!))!!!'       ",
"          ~{')!)'!!)'       ",
"           ~ ''' '''        ",
"           ~ ]]] ]]]        ",
"           {]]'   ']]       ",
"                            ",
"                            "};
